<svg width="40" height="40" viewBox="0 0 40 40" fill="none" xmlns="http://www.w3.org/2000/svg">
<g clip-path="url(#clip0_38_6294)">
<path d="M39.2235 12.0904C39.1296 10.0377 38.8035 8.636 38.327 7.40953C37.8427 6.12264 37.0838 4.95703 36.1029 3.99368C35.14 3.01277 33.9739 2.25297 32.687 1.76873C31.4606 1.29263 30.0588 0.96694 28.0062 0.873519C25.9496 0.77967 25.2927 0.756958 20.0556 0.756958C14.8184 0.756958 14.1615 0.77967 12.1049 0.873091C10.0523 0.96694 8.65053 1.29306 7.42406 1.76959C6.13717 2.25383 4.97155 3.01277 4.00821 3.99368C3.02729 4.9566 2.2675 6.12221 1.78326 7.4091C1.30715 8.636 0.981466 10.0377 0.888046 12.09C0.793768 14.147 0.771484 14.8039 0.771484 20.041C0.771484 25.2786 0.793768 25.9355 0.888046 27.9921C0.981466 30.0443 1.30758 31.4465 1.78454 32.6729C2.26879 33.9594 3.02772 35.1255 4.00864 36.0884C4.97155 37.0693 6.1376 37.8287 7.42449 38.3125C8.65095 38.7894 10.0527 39.1151 12.1054 39.209C14.1619 39.3028 14.8189 39.3251 20.056 39.3251C25.2931 39.3251 25.95 39.3032 28.0066 39.209C30.0593 39.1151 31.461 38.7894 32.6875 38.3125C35.278 37.311 37.3255 35.263 38.327 32.6729C38.804 31.4461 39.1296 30.0443 39.2235 27.9921C39.3173 25.9351 39.3396 25.2782 39.3396 20.041C39.3396 14.8039 39.3173 14.147 39.2235 12.0904ZM35.7524 27.8339C35.6666 29.7143 35.3525 30.7351 35.0886 31.4148C34.4398 33.0968 33.1104 34.4257 31.4289 35.0745C30.7496 35.3384 29.7284 35.6525 27.848 35.7383C25.8151 35.8312 25.2048 35.8505 20.0556 35.8505C14.9058 35.8505 14.296 35.8312 12.2631 35.7383C10.3831 35.6525 9.36189 35.3384 8.68224 35.0745C7.84488 34.7651 7.08723 34.2722 6.465 33.6316C5.82434 33.0093 5.33152 32.2521 5.02212 31.4143C4.75814 30.7351 4.44403 29.7139 4.35832 27.8335C4.26576 25.8001 4.24604 25.1903 4.24604 20.041C4.24604 14.8918 4.26576 14.2819 4.35832 12.2485C4.44446 10.3681 4.75814 9.34737 5.02212 8.66771C5.33152 7.82993 5.82434 7.07228 6.465 6.45004C7.08723 5.80938 7.84488 5.31657 8.68267 5.0076C9.36189 4.74319 10.3831 4.4295 12.2635 4.34337C14.2965 4.25123 14.9063 4.23152 20.0556 4.23152C25.2048 4.23152 25.8142 4.25123 27.8476 4.34422C29.728 4.42993 30.7488 4.74405 31.4284 5.00802C32.2658 5.31743 33.0234 5.81024 33.6457 6.45047C34.2863 7.0727 34.7792 7.83035 35.0881 8.66814C35.3525 9.34737 35.6666 10.3686 35.7524 12.249C35.8449 14.2824 35.8646 14.8922 35.8646 20.0415C35.8646 25.1907 35.8453 25.8001 35.7524 27.8339Z" fill="url(#paint0_linear_38_6294)"/>
<path d="M20.0549 10.1387C14.586 10.1387 10.1523 14.5723 10.1523 20.0413C10.1523 25.5102 14.586 29.9438 20.0549 29.9438C25.5243 29.9438 29.9575 25.5102 29.9575 20.0413C29.9575 14.5723 25.5243 10.1387 20.0549 10.1387ZM20.0549 26.4693C16.5054 26.4689 13.6273 23.5912 13.6273 20.0413C13.6273 16.4913 16.5049 13.6132 20.0554 13.6132C23.6053 13.6137 26.4834 16.4913 26.4834 20.0413C26.4834 23.5912 23.6053 26.4693 20.0549 26.4693Z" fill="url(#paint1_linear_38_6294)"/>
<path d="M32.6633 9.74732C32.6633 11.0252 31.6271 12.0614 30.3492 12.0614C29.0709 12.0614 28.0352 11.0252 28.0352 9.74732C28.0352 8.469 29.0714 7.43323 30.3492 7.43323C31.6271 7.43323 32.6633 8.46942 32.6633 9.74732Z" fill="url(#paint2_linear_38_6294)"/>
</g>
<defs>
<linearGradient id="paint0_linear_38_6294" x1="4.00812" y1="36.0883" x2="36.103" y2="3.99347" gradientUnits="userSpaceOnUse">
<stop stop-color="#FFD600"/>
<stop offset="0.5" stop-color="#FF0100"/>
<stop offset="1" stop-color="#D800B9"/>
</linearGradient>
<linearGradient id="paint1_linear_38_6294" x1="13.053" y1="27.0435" x2="27.0574" y2="13.0391" gradientUnits="userSpaceOnUse">
<stop stop-color="#FF6400"/>
<stop offset="0.5" stop-color="#FF0100"/>
<stop offset="1" stop-color="#FD0056"/>
</linearGradient>
<linearGradient id="paint2_linear_38_6294" x1="28.7127" y1="11.3837" x2="31.9854" y2="8.111" gradientUnits="userSpaceOnUse">
<stop stop-color="#F30072"/>
<stop offset="1" stop-color="#E50097"/>
</linearGradient>
<clipPath id="clip0_38_6294">
<rect width="39.0409" height="39.0409" fill="white" transform="translate(0.556641 0.542603)"/>
</clipPath>
</defs>
</svg>
