<svg width="40" height="40" viewBox="0 0 40 40" fill="none" xmlns="http://www.w3.org/2000/svg">
<g clip-path="url(#clip0_38_6313)">
<path d="M20.0178 11.7696H7.29801C3.74974 11.7696 0.869131 10.2222 0.779567 6.69531C0.777853 6.75145 0.770996 6.80587 0.770996 6.86244V20.2769C4.31284 24.6621 9.7308 27.4694 15.807 27.4694H16.0993C19.6475 27.4694 21.2425 29.0168 21.3321 32.5437C21.3334 32.4875 21.3407 32.4331 21.3407 32.3765C21.3407 35.9814 19.7041 38.9036 16.0993 38.9036H32.8121C36.417 38.9036 39.3391 35.9814 39.3391 32.3765C39.3391 18.6476 30.6887 11.7696 20.0178 11.7696Z" fill="#2AB400"/>
<path d="M39.3391 32.3764C39.3391 21.7055 30.6887 13.0551 20.0178 13.0551H7.29801C3.74974 13.0551 0.869131 10.2221 0.779567 6.69521C0.777853 6.75135 0.770996 6.80577 0.770996 6.86234C0.770996 3.25751 3.69318 0.335327 7.29801 0.335327H32.8121C36.417 0.335327 39.3391 3.25751 39.3391 6.86234V32.3764Z" fill="#2DC100"/>
<path d="M0.770996 32.3765V18.9912C4.31284 23.3764 9.7308 26.1837 15.807 26.1837H16.0993C19.6475 26.1837 22.5281 29.0168 22.6177 32.5436C22.619 32.4875 22.6263 32.4331 22.6263 32.3765C22.6263 35.9813 19.7041 38.9035 16.0993 38.9035H7.29801C3.69318 38.9035 0.770996 35.9813 0.770996 32.3765Z" fill="#27A900"/>
<path d="M32.4715 20.4245C31.8167 18.941 30.5799 17.7659 29.1456 17.0387C26.6134 15.7539 23.4619 15.7638 20.9379 17.0687C19.1822 17.9703 17.7179 19.5846 17.3009 21.5486C16.9576 22.9936 17.2666 24.5501 18.0324 25.8117C19.1745 27.7045 21.2357 28.9121 23.3809 29.3004C24.9344 29.6162 26.5405 29.4311 28.049 28.9918C28.9519 29.3449 29.7618 29.9127 30.6386 30.3331C30.4145 29.5746 30.1728 28.8213 29.914 28.0739C30.8953 27.3728 31.7901 26.5025 32.3283 25.4071C33.1288 23.8815 33.1768 21.993 32.4715 20.4245ZM23.6574 20.9911C23.4349 21.6922 22.4125 21.9038 21.9209 21.3682C21.3775 20.8754 21.5888 19.8417 22.301 19.6223C23.0934 19.2894 24.0045 20.2004 23.6574 20.9911ZM28.8165 21.0883C28.5461 21.72 27.6003 21.8653 27.1336 21.3768C26.9074 21.1736 26.8521 20.8647 26.7617 20.5917C26.8825 20.1001 27.2103 19.5885 27.7687 19.5662C28.5422 19.4603 29.2202 20.398 28.8165 21.0883Z" fill="white"/>
<path d="M16.2583 21.3011C16.7091 19.1785 18.2776 17.2308 20.4485 16.1154C22.0748 15.2746 23.9317 14.9163 25.7564 15.0367C25.1581 12.9888 23.6505 11.2699 21.795 10.2427C19.1115 8.73171 15.7668 8.50373 12.8793 9.54679C10.9826 10.2303 9.2642 11.4996 8.20315 13.2292C7.24109 14.7882 6.88026 16.7333 7.34522 18.5173C7.81061 20.498 9.18278 22.1573 10.8549 23.2663C10.5404 24.1804 10.2305 25.0945 9.93829 26.0154C10.9951 25.4664 12.0394 24.8939 13.0923 24.3355C14.1761 24.6826 15.3074 24.8648 16.4439 24.887C16.0582 23.7129 15.9823 22.4645 16.2583 21.3011ZM19.3421 12.8551C20.1863 12.523 21.1856 13.2352 21.1196 14.1454C21.1278 15.1803 19.7496 15.8253 18.9744 15.1225C18.17 14.5474 18.398 13.1456 19.3421 12.8551ZM14.6016 14.4059C14.4152 15.305 13.2097 15.7387 12.5061 15.1362C11.6906 14.5611 11.9185 13.1323 12.878 12.8456C13.8165 12.4831 14.8844 13.437 14.6016 14.4059Z" fill="white"/>
</g>
<defs>
<clipPath id="clip0_38_6313">
<rect width="39.0409" height="39.0409" fill="white" transform="translate(0.556641 0.120728)"/>
</clipPath>
</defs>
</svg>
